{
    "asset" : {
        "generator" : "Khronos glTF Blender I/O v1.4.40",
        "version" : "2.0"
    },
    "scene" : 0,
    "scenes" : [
        {
            "name" : "Scene",
            "nodes" : [
                0,
                1,
                2
            ]
        }
    ],
    "nodes" : [
        {
            "mesh" : 0,
            "name" : "Suzanne"
        },
        {
            "mesh" : 1,
            "name" : "Torus",
            "translation" : [
                2.666595697402954,
                0,
                0
            ]
        },
        {
            "mesh" : 2,
            "name" : "Cube",
            "translation" : [
                -2.8833584785461426,
                0,
                0
            ]
        }
    ],
    "meshes" : [
        {
            "name" : "Suzanne",
            "primitives" : [
                {
                    "attributes" : {
                        "POSITION" : 0,
                        "NORMAL" : 1,
                        "TEXCOORD_0" : 2
                    },
                    "indices" : 3
                }
            ]
        },
        {
            "name" : "Torus",
            "primitives" : [
                {
                    "attributes" : {
                        "POSITION" : 4,
                        "NORMAL" : 5,
                        "TEXCOORD_0" : 6
                    },
                    "indices" : 7
                }
            ]
        },
        {
            "name" : "Cube.001",
            "primitives" : [
                {
                    "attributes" : {
                        "POSITION" : 8,
                        "NORMAL" : 9,
                        "TEXCOORD_0" : 10
                    },
                    "indices" : 11
                }
            ]
        }
    ],
    "accessors" : [
        {
            "bufferView" : 0,
            "componentType" : 5126,
            "count" : 1966,
            "max" : [
                1.3671875,
                0.984375,
                0.8515625
            ],
            "min" : [
                -1.3671875,
                -0.984375,
                -0.8515625
            ],
            "type" : "VEC3"
        },
        {
            "bufferView" : 1,
            "componentType" : 5126,
            "count" : 1966,
            "type" : "VEC3"
        },
        {
            "bufferView" : 2,
            "componentType" : 5126,
            "count" : 1966,
            "type" : "VEC2"
        },
        {
            "bufferView" : 3,
            "componentType" : 5123,
            "count" : 2904,
            "type" : "SCALAR"
        },
        {
            "bufferView" : 4,
            "componentType" : 5126,
            "count" : 2304,
            "max" : [
                1.25,
                0.25,
                1.25
            ],
            "min" : [
                -1.25,
                -0.25,
                -1.25
            ],
            "type" : "VEC3"
        },
        {
            "bufferView" : 5,
            "componentType" : 5126,
            "count" : 2304,
            "type" : "VEC3"
        },
        {
            "bufferView" : 6,
            "componentType" : 5126,
            "count" : 2304,
            "type" : "VEC2"
        },
        {
            "bufferView" : 7,
            "componentType" : 5123,
            "count" : 3456,
            "type" : "SCALAR"
        },
        {
            "bufferView" : 8,
            "componentType" : 5126,
            "count" : 24,
            "max" : [
                1,
                1,
                1
            ],
            "min" : [
                -1,
                -1,
                -1
            ],
            "type" : "VEC3"
        },
        {
            "bufferView" : 9,
            "componentType" : 5126,
            "count" : 24,
            "type" : "VEC3"
        },
        {
            "bufferView" : 10,
            "componentType" : 5126,
            "count" : 24,
            "type" : "VEC2"
        },
        {
            "bufferView" : 11,
            "componentType" : 5123,
            "count" : 36,
            "type" : "SCALAR"
        }
    ],
    "bufferViews" : [
        {
            "buffer" : 0,
            "byteLength" : 23592,
            "byteOffset" : 0
        },
        {
            "buffer" : 0,
            "byteLength" : 23592,
            "byteOffset" : 23592
        },
        {
            "buffer" : 0,
            "byteLength" : 15728,
            "byteOffset" : 47184
        },
        {
            "buffer" : 0,
            "byteLength" : 5808,
            "byteOffset" : 62912
        },
        {
            "buffer" : 0,
            "byteLength" : 27648,
            "byteOffset" : 68720
        },
        {
            "buffer" : 0,
            "byteLength" : 27648,
            "byteOffset" : 96368
        },
        {
            "buffer" : 0,
            "byteLength" : 18432,
            "byteOffset" : 124016
        },
        {
            "buffer" : 0,
            "byteLength" : 6912,
            "byteOffset" : 142448
        },
        {
            "buffer" : 0,
            "byteLength" : 288,
            "byteOffset" : 149360
        },
        {
            "buffer" : 0,
            "byteLength" : 288,
            "byteOffset" : 149648
        },
        {
            "buffer" : 0,
            "byteLength" : 192,
            "byteOffset" : 149936
        },
        {
            "buffer" : 0,
            "byteLength" : 72,
            "byteOffset" : 150128
        }
    ],
    "buffers" : [
        {
            "byteLength" : 150200,
            "uri" : "data:application/octet-stream;base64,"
        }
    ]
}
